HIERARCHY
ROOT hip
{
	OFFSET 0.000000 0.000000 0.000000 
	CHANNELS 6 Xposition Yposition Zposition Xrotation Zrotation Yrotation
	JOINT abdomen
	{
		OFFSET 0.000000 3.402643 0.000000 
		CHANNELS 3 Xrotation Zrotation Yrotation
		JOINT chest
		{
			OFFSET 0.000000 8.438565 -0.680529 
			CHANNELS 3 Xrotation Zrotation Yrotation
			JOINT neck
			{
				OFFSET 0.000000 10.207942 -0.272212 
				CHANNELS 3 Xrotation Zrotation Yrotation
				JOINT head
				{
					OFFSET 0.000000 3.130431 0.000000 
					CHANNELS 3 Xrotation Zrotation Yrotation
					End Site
					{
						OFFSET 0.000000 3.130435 0.000000 
					}
				}
			}
			JOINT lCollar
			{
				OFFSET 3.470700 6.669187 -0.816635 
				CHANNELS 3 Yrotation Zrotation Xrotation
				JOINT lShldr
				{
					OFFSET 3.198488 0.000000 0.000000 
					CHANNELS 3 Zrotation Yrotation Xrotation
					JOINT lForeArm
					{
						OFFSET 10.139888 0.000000 0.000000 
						CHANNELS 3 Yrotation Zrotation Xrotation
						JOINT lHand
						{
							OFFSET 8.370511 0.000000 0.000000 
							CHANNELS 3 Zrotation Yrotation Xrotation
							End Site
							{
								OFFSET 4.083176 0.000000 0.000000 
							}
						}
					}
				}
			}
			JOINT rCollar
			{
				OFFSET -3.470700 6.669187 -0.816635 
				CHANNELS 3 Yrotation Zrotation Xrotation
				JOINT rShldr
				{
					OFFSET -3.198488 0.000000 0.000000 
					CHANNELS 3 Zrotation Yrotation Xrotation
					JOINT rForeArm
					{
						OFFSET -10.139888 0.000000 0.000000 
						CHANNELS 3 Yrotation Zrotation Xrotation
						JOINT rHand
						{
							OFFSET -8.370511 0.000000 0.000000 
							CHANNELS 3 Zrotation Yrotation Xrotation
							End Site
							{
								OFFSET -4.083176 0.000000 0.000000 
							}
						}
					}
				}
			}
		}
	}
	JOINT lThigh
	{
		OFFSET 5.308129 -1.633274 1.361059 
		CHANNELS 3 Xrotation Zrotation Yrotation
		JOINT lShin
		{
			OFFSET -2.041588 -20.007561 0.000000 
			CHANNELS 3 Xrotation Zrotation Yrotation
			JOINT lFoot
			{
				OFFSET 0.000000 -19.190928 -1.224953 
				CHANNELS 3 Xrotation Yrotation Zrotation
				End Site
				{
					OFFSET 0.000000 -2.449906 4.627600 
				}
			}
		}
	}
	JOINT rThigh
	{
		OFFSET -5.308129 -1.633274 1.361059 
		CHANNELS 3 Xrotation Zrotation Yrotation
		JOINT rShin
		{
			OFFSET 2.041588 -20.007561 0.000000 
			CHANNELS 3 Xrotation Zrotation Yrotation
			JOINT rFoot
			{
				OFFSET 0.000000 -19.190928 -1.224953 
				CHANNELS 3 Xrotation Yrotation Zrotation
				End Site
				{
					OFFSET 0.000000 -2.449906 4.627600 
				}
			}
		}
	}
}
MOTION
Frames: 11
Frame Time: 0.016667
0.004944 45.804565 0.332782 2.519980 1.082940 -2.286150 -21.324100 -0.584439 -1.113670 18.476400 0.780735 -0.633824 13.081000 5.015690 -2.596960 11.381900 7.171890 -1.114630 2.000000 -2.000000 0.000000 -89.643402 -0.579376 153.126007 20.146700 -0.343199 0.047149 0.044982 -0.010576 -140.701004 -2.000000 2.000000 0.000000 83.249802 -3.558450 169.229996 -25.840099 0.337895 0.059593 -0.055059 -0.004791 -131.716995 -6.779711 -2.892090 -9.184624 21.298391 3.099179 1.559815 -15.628456 16.621241 5.288523 -7.920523 7.511661 19.911736 21.357380 -2.710812 -1.707331 -11.982880 -3.298231 0.163677 
-0.069074 45.771873 0.364945 2.510250 1.121970 -1.981880 -21.246901 -0.567252 -0.984379 18.583799 0.683189 -0.570405 13.171100 4.633990 -2.209690 11.350300 7.056190 -0.918272 2.000000 -2.000000 0.000000 -89.507599 -0.528711 153.985001 20.908400 -0.342562 0.048851 0.045183 -0.013276 -141.667999 -2.000000 2.000000 0.000000 83.347397 -3.509370 169.121994 -25.752199 0.337986 0.059404 -0.055160 -0.005852 -131.335999 -6.850641 -2.683923 -8.621954 21.407797 3.098432 1.578327 -15.486835 15.636694 4.971520 -7.930332 7.603823 19.976440 21.568897 -2.679297 -1.728113 -12.115781 -3.617546 0.074630 
-0.146801 45.710617 0.398238 2.363690 1.063550 -1.625850 -21.150299 -0.514759 -0.816555 18.642500 0.556330 -0.477576 13.555100 4.185810 -1.662020 11.416900 6.929070 -0.662427 2.000000 -2.000000 0.000000 -89.351898 -0.429901 154.522003 21.748301 -0.341833 0.050718 0.045364 -0.015291 -142.391006 -2.000000 2.000000 0.000000 83.416000 -3.764400 169.600006 -25.937799 0.337793 0.059803 -0.054928 -0.003265 -132.264008 -6.998824 -2.266567 -7.398477 22.054771 3.138789 1.616767 -15.685584 13.787474 4.489445 -7.940520 7.845424 19.814240 22.099554 -2.696208 -1.761701 -12.527697 -3.824360 0.009982 
-0.237448 45.610611 0.423232 2.295170 0.839170 -1.079510 -21.092100 -0.409907 -0.731601 18.642500 0.429448 -0.424508 14.367400 3.729110 -0.874137 11.641500 6.837920 -0.295349 2.000000 -2.000000 0.000000 -89.196198 -0.311618 155.029999 22.471001 -0.341184 0.052315 0.045526 -0.016897 -142.966995 -2.000000 2.000000 0.000000 83.425903 -4.048150 169.834000 -26.211201 0.337506 0.060389 -0.054989 -0.004001 -132.000000 -7.583316 -1.397910 -4.928566 23.359993 3.135413 1.699057 -15.522207 10.771130 3.590607 -8.076697 8.283576 19.609276 22.755722 -2.658491 -1.823079 -13.140897 -4.172264 -0.137235 
-0.302002 45.499420 0.438034 2.080190 0.605070 -0.466202 -20.965900 -0.368789 -0.538499 18.652300 0.117123 -0.316394 15.100700 3.107210 -0.165091 11.805000 6.631720 0.057014 2.000000 -2.000000 0.000000 -88.962502 -0.085653 155.654007 23.555000 -0.340173 0.054696 0.045943 -0.020455 -144.246002 -2.000000 2.000000 0.000000 83.553001 -4.097580 170.087997 -26.084299 0.337640 0.060117 -0.055040 -0.004573 -131.794998 -8.666550 -0.512889 -2.652423 25.689602 3.062737 1.871210 -15.303476 7.624421 2.690081 -8.180093 8.603042 18.615454 23.464285 -2.665838 -1.861869 -13.563776 -3.817806 -0.099765 
-0.379676 45.373554 0.389967 1.738290 -0.146417 0.513110 -20.731701 -0.171450 -0.457219 18.515600 -0.283023 -0.243820 15.985100 3.002190 0.431463 12.099900 6.626400 0.355633 2.000000 -2.000000 0.000000 -88.611801 -0.034737 156.610992 24.424101 -0.339330 0.056591 0.046275 -0.022893 -145.125000 -2.000000 2.000000 0.000000 83.601997 -4.157070 170.468994 -26.181900 0.337537 0.060326 -0.054952 -0.003565 -132.156006 -10.604481 0.989949 -0.636108 29.533209 2.968169 2.151660 -15.091002 4.579626 1.819731 -8.037045 9.378453 17.407681 23.696283 -2.626634 -1.899485 -13.831867 -3.555636 -0.092457 
-0.454271 45.279213 0.377928 1.337900 -0.224548 1.615810 -20.526800 -0.150876 -0.402353 18.359301 -0.380579 -0.210007 16.738100 3.095770 1.039280 12.287600 6.671260 0.647684 2.000000 -2.000000 0.000000 -88.358498 0.054504 157.225998 25.010000 -0.338745 0.057861 0.046581 -0.024921 -145.856995 -2.000000 2.000000 0.000000 83.465698 -4.384300 171.580994 -26.416300 0.337289 0.060827 -0.054769 -0.001138 -133.024994 -12.513156 1.793338 1.388623 33.652157 2.775660 2.440246 -13.595399 2.350969 1.118163 -7.916623 9.519240 16.442989 24.346348 -2.625811 -1.937834 -14.248264 -3.568074 -0.135100 
-0.530152 45.229935 0.389394 0.947286 -0.371043 3.040680 -20.282801 -0.102822 -0.357638 18.300699 -0.517177 -0.174940 17.637300 3.247500 1.553250 12.553900 6.714470 0.910106 2.000000 -2.000000 0.000000 -88.182800 -0.033214 157.304993 25.068600 -0.338686 0.057987 0.046551 -0.024732 -145.789001 -2.000000 2.000000 0.000000 83.397499 -4.394730 171.865005 -25.869400 0.337864 0.059656 -0.054992 -0.004028 -131.990005 -14.735814 2.639277 2.519656 37.980812 2.550831 2.737642 -11.238595 0.806706 0.649727 -7.475138 9.790064 16.005079 24.423962 -2.634971 -1.938404 -14.841661 -4.192317 -0.390667 
-0.570860 45.220665 0.463105 0.517589 -0.371079 3.854010 -19.990200 0.024103 -0.019159 18.408100 -0.653837 0.004997 18.798000 3.363080 2.293960 12.900000 6.804130 1.267740 2.000000 -2.000000 0.000000 -88.084999 -0.101917 157.149002 24.873301 -0.338883 0.057565 0.046279 -0.022920 -145.134995 -2.000000 2.000000 0.000000 -96.748901 -175.507004 -7.930650 -25.449499 0.338298 0.058753 -0.055097 -0.005199 -131.570007 -16.734413 3.313463 3.474828 41.997276 2.329599 2.981889 -8.569115 0.125768 0.467286 -6.864159 9.875759 15.774826 24.361008 -2.667165 -1.926035 -15.210180 -4.641671 -0.538842 
-0.593844 45.239456 0.551561 0.380863 -0.234370 4.890980 -19.765499 0.068581 0.182888 18.515499 -0.712438 0.113279 19.978800 3.059090 3.252780 13.292900 6.776650 1.761240 2.000000 -2.000000 0.000000 -88.104202 0.024285 156.807007 24.717100 -0.339039 0.057226 0.046411 -0.023813 -145.457001 -2.000000 2.000000 0.000000 -96.875801 -175.427994 -7.598810 -25.254200 0.338498 0.058332 -0.055107 -0.005308 -131.531006 -18.797014 3.777335 4.156169 45.125404 2.155709 3.187584 -6.836195 0.496671 0.490276 -6.563425 9.817058 15.094927 24.357023 -2.702069 -1.923465 -15.431897 -5.362966 -0.820082 
-0.599648 45.232883 0.688721 0.273438 0.009766 5.361370 -19.578699 0.199795 0.644045 18.603399 -0.683197 0.355329 21.077600 2.501200 4.269140 13.645200 6.692000 2.307310 2.000000 -2.000000 0.000000 -88.133400 0.326933 156.766998 24.492500 -0.339262 0.056739 0.046556 -0.024759 -145.798996 -2.000000 2.000000 0.000000 -97.070999 -175.369003 -7.266910 -25.068600 0.338686 0.057931 -0.055040 -0.004573 -131.794998 -20.179668 4.170123 5.523666 46.651772 2.015229 3.279191 -7.035587 -0.431626 0.372013 -6.242650 9.679313 15.128433 24.405861 -2.704602 -1.923229 -15.698426 -6.006721 -1.075841 
